<?xml version="1.0" standalone="no"?>
<!DOCTYPE svg PUBLIC "-//W3C//DTD SVG 20010904//EN"
 "http://www.w3.org/TR/2001/REC-SVG-20010904/DTD/svg10.dtd">
<svg version="1.0" xmlns="http://www.w3.org/2000/svg"
 width="500.000000pt" height="500.000000pt" viewBox="0 0 500.000000 500.000000"
 preserveAspectRatio="xMidYMid meet">

<g transform="translate(0.000000,500.000000) scale(0.100000,-0.100000)"
fill="#000000" stroke="none">
<path d="M2337 3597 c-15 -11 -17 -24 -11 -115 4 -56 12 -109 19 -118 20 -27
120 -9 163 30 66 61 48 168 -33 202 -42 17 -115 18 -138 1z m141 -60 c51 -47
11 -137 -63 -137 -33 0 -35 2 -35 34 0 18 -3 54 -6 79 -6 44 -6 46 22 49 37 5
54 0 82 -25z"/>
<path d="M2649 3491 c-59 -59 -24 -154 57 -155 21 -1 45 -5 52 -9 20 -14 29 0
47 73 18 72 15 114 -7 92 -8 -8 -18 -6 -36 8 -36 29 -78 25 -113 -9z m99 -33
c7 -7 12 -21 12 -33 0 -12 -5 -26 -12 -33 -7 -7 -21 -12 -33 -12 -12 0 -26 5
-33 12 -7 7 -12 21 -12 33 0 12 5 26 12 33 7 7 21 12 33 12 12 0 26 -5 33 -12z"/>
<path d="M2067 3443 c-4 -4 -5 -34 -1 -66 8 -67 8 -67 -58 -14 -20 16 -41 26
-47 22 -25 -15 -7 -42 54 -84 36 -24 65 -50 65 -56 0 -7 -10 -24 -21 -39 -16
-21 -19 -30 -10 -39 15 -15 42 1 60 38 19 39 3 238 -19 243 -9 1 -19 -1 -23
-5z"/>
<path d="M2906 3438 c-2 -7 -7 -46 -10 -87 -6 -81 -15 -94 -59 -86 -19 3 -30
0 -34 -11 -8 -20 13 -34 53 -34 38 0 203 115 204 142 0 32 -21 30 -65 -6 -24
-20 -46 -36 -50 -36 -4 0 -5 28 -3 62 3 53 0 63 -15 66 -9 2 -19 -2 -21 -10z"/>
<path d="M1793 3345 c-3 -9 1 -23 9 -33 92 -110 142 -160 154 -155 26 10 14
34 -58 119 -71 83 -93 98 -105 69z"/>
<path d="M1684 3235 c-4 -9 -2 -21 4 -27 15 -15 44 -1 40 19 -4 23 -36 29 -44
8z"/>
<path d="M3194 3177 c-79 -72 -36 -217 66 -217 32 0 24 24 -17 51 -33 20 -38
30 -41 65 -3 36 1 45 29 69 26 21 39 26 63 21 36 -7 66 -39 66 -70 0 -32 15
-50 35 -42 31 11 13 84 -29 123 -30 28 -43 33 -86 33 -43 0 -56 -5 -86 -33z"/>
<path d="M1740 3181 c0 -21 100 -111 124 -111 32 0 15 39 -38 84 -58 49 -86
58 -86 27z"/>
<path d="M2340 3174 c-36 -7 -101 -31 -145 -53 -143 -72 -246 -175 -315 -316
-50 -102 -70 -187 -70 -300 0 -148 37 -276 112 -387 l32 -46 53 48 c78 69 145
103 191 97 51 -7 159 -48 207 -80 22 -14 52 -29 68 -32 23 -6 27 -4 27 13 0
13 -29 46 -77 89 -168 149 -194 185 -200 283 -9 134 100 204 217 139 22 -12
42 -20 45 -17 9 9 -55 88 -88 108 -72 44 -185 12 -273 -78 -29 -29 -74 -94
-107 -156 -32 -58 -61 -108 -66 -110 -25 -16 -29 180 -6 268 51 196 215 360
411 410 78 20 212 21 287 1 198 -51 366 -221 412 -416 8 -35 15 -101 15 -146
0 -80 1 -82 40 -132 22 -28 44 -51 49 -51 15 0 22 41 28 155 11 210 -51 369
-202 521 -74 75 -105 98 -175 132 -47 23 -114 48 -150 56 -80 19 -233 19 -320
0z"/>
<path d="M1634 3044 c-19 -18 -24 -32 -20 -48 4 -18 0 -28 -19 -40 -15 -10
-25 -26 -25 -41 0 -13 -4 -27 -10 -30 -23 -14 -6 -33 59 -65 102 -49 145 -22
48 30 -46 25 -62 43 -51 61 9 15 42 10 86 -12 27 -14 44 -17 51 -10 17 17 0
40 -48 63 -28 14 -45 29 -45 39 0 30 20 32 70 9 48 -23 85 -21 78 3 -6 17 -98
66 -126 67 -13 0 -34 -11 -48 -26z"/>
<path d="M3335 2921 c-57 -24 -77 -100 -38 -143 10 -11 17 -29 15 -39 -4 -24
-2 -24 90 7 49 16 78 31 78 40 0 8 -6 14 -13 14 -9 0 -12 11 -9 33 7 61 -66
113 -123 88z m69 -57 c19 -18 20 -28 6 -55 -21 -39 -90 -16 -90 30 0 16 30 41
50 41 10 0 26 -7 34 -16z"/>
<path d="M1518 2739 c-9 -6 -9 -11 0 -22 10 -11 9 -17 -3 -27 -8 -7 -15 -29
-15 -49 0 -84 100 -121 161 -60 17 17 20 30 16 64 -2 25 0 48 6 54 7 7 7 14 2
20 -14 13 -152 29 -167 20z m106 -65 c19 -18 20 -28 6 -55 -21 -39 -90 -16
-90 30 0 16 30 41 50 41 10 0 26 -7 34 -16z"/>
<path d="M3400 2663 c-59 -5 -82 -16 -73 -39 3 -10 22 -14 59 -14 52 0 56 -2
75 -35 12 -19 25 -35 30 -35 17 0 23 32 12 61 -7 18 -7 31 -1 37 15 15 0 32
-25 30 -12 -1 -47 -3 -77 -5z"/>
<path d="M3353 2465 c-43 -30 -49 -135 -9 -135 11 0 15 11 13 41 -1 26 4 43
13 49 26 17 30 11 23 -32 -12 -78 -11 -83 24 -86 46 -5 83 34 83 85 0 21 -6
45 -13 54 -30 39 -96 51 -134 24z m107 -79 c0 -22 -17 -46 -32 -46 -9 0 -10
35 -2 68 5 18 9 20 20 11 8 -6 14 -21 14 -33z"/>
<path d="M1425 2458 c-3 -7 1 -44 8 -83 l13 -70 49 1 c28 1 83 7 123 14 66 11
73 14 70 33 -3 20 -8 22 -50 19 l-47 -4 -6 46 c-6 37 -11 46 -27 46 -19 0 -20
-5 -16 -50 5 -51 -1 -60 -42 -60 -14 0 -20 10 -25 43 -3 23 -9 50 -11 60 -6
20 -32 23 -39 5z"/>
</g>
</svg>
